<svg xmlns="http://www.w3.org/2000/svg" viewBox="30 70 1290 880" width="1290" height="880"><path d="M900 882.2 L903.9 882.2 L907.8 882.1 L911.8 882 L915.7 881.8 L919.5 881.6 L923.4 881.3 L927.2 881 L931 880.7 L934.8 880.3 L938.5 879.8 L942.1 879.3 L945.8 878.7 L949.3 878.1 L952.8 877.5 L956.2 876.8 L959.6 876.1 L962.9 875.3 L966.1 874.5 L969.3 873.7 L972.3 872.8 L975.3 871.9 L978.1 870.9 L980.9 869.9 L983.6 868.9" fill="none" stroke="#0F2A4A" stroke-width="1.6"/><path d="M816.4 868.9 L819.1 869.9 L821.9 870.9 L824.7 871.9 L827.7 872.8 L830.7 873.7 L833.9 874.5 L837.1 875.3 L840.4 876.1 L843.7 876.8 L847.2 877.5 L850.7 878.1 L854.2 878.7 L857.9 879.3 L861.5 879.8 L865.2 880.3 L869 880.7 L872.8 881 L876.6 881.3 L880.5 881.6 L884.3 881.8 L888.2 882 L892.2 882.1 L896.1 882.2 L900 882.2" fill="none" stroke="#0F2A4A" stroke-width="1.6"/><path d="M900 834.9 L906.8 834.8 L913.6 834.7 L920.4 834.5 L927.1 834.2 L933.8 833.8 L940.5 833.3 L947.1 832.8 L953.7 832.2 L960.2 831.4 L966.6 830.6 L973 829.8 L979.3 828.8 L985.4 827.8 L991.5 826.7 L997.4 825.5 L1003.3 824.2 L1009 822.9 L1014.5 821.5 L1020 820.1 L1025.3 818.5 L1030.4 816.9 L1035.4 815.3 L1040.2 813.5 L1044.8 811.8 L1049.3 809.9 L1053.5 808 L1057.6 806.1 L1061.5 804.1 L1065.2 802 L1068.8 799.9 L1072 797.8 L1075.1 795.6 L1078 793.4 L1080.7 791.2 L1083.1 788.9 L1085.3 786.6 L1087.3 784.3 L1089.1 781.9" fill="none" stroke="#0F2A4A" stroke-width="1.6"/><path d="M710.9 781.9 L712.7 784.3 L714.7 786.6 L716.9 788.9 L719.3 791.2 L722 793.4 L724.9 795.6 L728 797.8 L731.2 799.9 L734.8 802 L738.5 804.1 L742.4 806.1 L746.5 808 L750.7 809.9 L755.2 811.8 L759.8 813.5 L764.6 815.3 L769.6 816.9 L774.7 818.5 L780 820.1 L785.5 821.5 L791 822.9 L796.7 824.2 L802.6 825.5 L808.5 826.7 L814.6 827.8 L820.7 828.8 L827 829.8 L833.4 830.6 L839.8 831.4 L846.3 832.2 L852.9 832.8 L859.5 833.3 L866.2 833.8 L872.9 834.2 L879.6 834.5 L886.4 834.7 L893.2 834.8 L900 834.9" fill="none" stroke="#0F2A4A" stroke-width="1.6"/><path d="M900 740.6 L907.9 740.6 L915.7 740.4 L923.5 740.2 L931.3 739.8 L939.1 739.4 L946.8 738.9 L954.4 738.2 L962 737.5 L969.5 736.7 L977 735.8 L984.3 734.8 L991.5 733.7 L998.6 732.5 L1005.6 731.2 L1012.5 729.8 L1019.2 728.4 L1025.8 726.8 L1032.3 725.2 L1038.5 723.5 L1044.6 721.8 L1050.6 719.9 L1056.3 718 L1061.9 716 L1067.2 714 L1072.4 711.8 L1077.3 709.6 L1082 707.4 L1086.5 705.1 L1090.8 702.7 L1094.9 700.3 L1098.7 697.9 L1102.2 695.3 L1105.5 692.8 L1108.6 690.2 L1111.4 687.6 L1114 684.9 L1116.3 682.2 L1118.3 679.5 L1120.1 676.8 L1121.6 674 L1122.8 671.2 L1123.8 668.4 L1124.5 665.6 L1124.9 662.8 L1125 660" fill="none" stroke="#0F2A4A" stroke-width="2.16"/><path d="M675.1 662.8 L675.5 665.6 L676.2 668.4 L677.2 671.2 L678.4 674 L679.9 676.8 L681.7 679.5 L683.7 682.2 L686 684.9 L688.6 687.6 L691.4 690.2 L694.5 692.8 L697.8 695.3 L701.3 697.9 L705.1 700.3 L709.2 702.7 L713.5 705.1 L718 707.4 L722.7 709.6 L727.6 711.8 L732.8 714 L738.1 716 L743.7 718 L749.4 719.9 L755.4 721.8 L761.5 723.5 L767.7 725.2 L774.2 726.8 L780.8 728.4 L787.5 729.8 L794.4 731.2 L801.4 732.5 L808.5 733.7 L815.7 734.8 L823 735.8 L830.5 736.7 L838 737.5 L845.6 738.2 L853.2 738.9 L860.9 739.4 L868.7 739.8 L876.5 740.2 L884.3 740.4 L892.1 740.6 L900 740.6" fill="none" stroke="#0F2A4A" stroke-width="2.16"/><path d="M900 624.8 L906.8 624.8 L913.6 624.6 L920.4 624.4 L927.1 624.1 L933.8 623.7 L940.5 623.3 L947.1 622.7 L953.7 622.1 L960.2 621.4 L966.6 620.6 L973 619.7 L979.3 618.8 L985.4 617.7 L991.5 616.6 L997.4 615.4 L1003.3 614.2 L1009 612.9 L1014.5 611.5 L1020 610 L1025.3 608.5 L1030.4 606.9 L1035.4 605.2 L1040.2 603.5 L1044.8 601.7 L1049.3 599.9 L1053.5 598 L1057.6 596 L1061.5 594 L1065.2 592 L1068.8 589.9 L1072 587.8 L1075.1 585.6 L1078 583.4 L1080.7 581.1 L1083.1 578.9 L1085.3 576.6 L1087.3 574.2 L1089.1 571.9 L1090.6 569.5 L1091.9 567.1 L1093 564.7 L1093.8 562.3 L1094.4 559.8 L1094.7 557.4 L1094.9 555 L1094.7 552.5 L1094.4 550.1 L1093.8 547.7 L1093 545.3 L1091.9 542.8 L1090.6 540.5" fill="none" stroke="#0F2A4A" stroke-width="1.6"/><path d="M709.4 540.5 L708.1 542.8 L707 545.3 L706.2 547.7 L705.6 550.1 L705.3 552.5 L705.1 555 L705.3 557.4 L705.6 559.8 L706.2 562.3 L707 564.7 L708.1 567.1 L709.4 569.5 L710.9 571.9 L712.7 574.2 L714.7 576.6 L716.9 578.9 L719.3 581.1 L722 583.4 L724.9 585.6 L728 587.8 L731.2 589.9 L734.8 592 L738.5 594 L742.4 596 L746.5 598 L750.7 599.9 L755.2 601.7 L759.8 603.5 L764.6 605.2 L769.6 606.9 L774.7 608.5 L780 610 L785.5 611.5 L791 612.9 L796.7 614.2 L802.6 615.4 L808.5 616.6 L814.6 617.7 L820.7 618.8 L827 619.7 L833.4 620.6 L839.8 621.4 L846.3 622.1 L852.9 622.7 L859.5 623.3 L866.2 623.7 L872.9 624.1 L879.6 624.4 L886.4 624.6 L893.2 624.8 L900 624.8" fill="none" stroke="#0F2A4A" stroke-width="1.6"/><path d="M900 518.4 L903.9 518.4 L907.8 518.3 L911.8 518.2 L915.7 518 L919.5 517.8 L923.4 517.5 L927.2 517.2 L931 516.8 L934.8 516.4 L938.5 516 L942.1 515.5 L945.8 514.9 L949.3 514.3 L952.8 513.7 L956.2 513 L959.6 512.3 L962.9 511.5 L966.1 510.7 L969.3 509.9 L972.3 509 L975.3 508 L978.1 507.1 L980.9 506.1 L983.6 505.1 L986.2 504 L988.7 502.9 L991 501.8 L993.3 500.6 L995.4 499.5 L997.4 498.2 L999.3 497 L1001.1 495.8 L1002.8 494.5 L1004.3 493.2 L1005.7 491.9 L1007 490.5 L1008.1 489.2 L1009.2 487.8 L1010 486.5 L1010.8 485.1 L1011.4 483.7 L1011.9 482.3 L1012.2 480.9 L1012.4 479.5 L1012.5 478.1 L1012.4 476.7 L1012.2 475.3 L1011.9 473.9 L1011.4 472.5 L1010.8 471.1 L1010 469.7 L1009.2 468.3 L1008.1 467 L1007 465.6 L1005.7 464.3 L1004.3 463 L1002.8 461.7 L1001.1 460.4 L999.3 459.2 L997.4 457.9 L995.4 456.7 L993.3 455.5 L991 454.4 L988.7 453.3 L986.2 452.2" fill="none" stroke="#0F2A4A" stroke-width="1.6"/><path d="M813.8 452.2 L811.3 453.3 L809 454.4 L806.7 455.5 L804.6 456.7 L802.6 457.9 L800.7 459.2 L798.9 460.4 L797.2 461.7 L795.7 463 L794.3 464.3 L793 465.6 L791.9 467 L790.8 468.3 L790 469.7 L789.2 471.1 L788.6 472.5 L788.1 473.9 L787.8 475.3 L787.6 476.7 L787.5 478.1 L787.6 479.5 L787.8 480.9 L788.1 482.3 L788.6 483.7 L789.2 485.1 L790 486.5 L790.8 487.8 L791.9 489.2 L793 490.5 L794.3 491.9 L795.7 493.2 L797.2 494.5 L798.9 495.8 L800.7 497 L802.6 498.2 L804.6 499.5 L806.7 500.6 L809 501.8 L811.3 502.9 L813.8 504 L816.4 505.1 L819.1 506.1 L821.9 507.1 L824.7 508 L827.7 509 L830.7 509.9 L833.9 510.7 L837.1 511.5 L840.4 512.3 L843.7 513 L847.2 513.7 L850.7 514.3 L854.2 514.9 L857.9 515.5 L861.5 516 L865.2 516.4 L869 516.8 L872.8 517.2 L876.6 517.5 L880.5 517.8 L884.3 518 L888.2 518.2 L892.2 518.3 L896.1 518.4 L900 518.4" fill="none" stroke="#0F2A4A" stroke-width="1.6"/><path d="M921.8 883.9 L923.7 883.6 L925.5 882.9 L927.3 882 L929.1 880.9 L930.9 879.4 L932.6 877.7 L934.2 875.7 L935.9 873.5 L937.4 871 L939 868.2 L940.5 865.2 L941.9 861.9 L943.3 858.4 L944.6 854.7 L945.9 850.7 L947.1 846.5 L948.3 842 L949.4 837.4 L950.4 832.5 L951.4 827.4 L952.3 822.1 L953.2 816.6 L954 810.9 L954.7 805 L955.4 799 L956 792.8 L956.5 786.4 L957 779.9 L957.3 773.2 L957.7 766.4 L957.9 759.4 L958.1 752.3 L958.2 745.2 L958.2 737.9 L958.2 730.5 L958.1 723 L957.9 715.5 L957.7 707.9 L957.3 700.2 L957 692.5 L956.5 684.8 L956 677 L955.4 669.2 L954.7 661.3 L954 653.5 L953.2 645.7 L952.3 637.9 L951.4 630.2 L950.4 622.4 L949.4 614.7 L948.3 607.1 L947.1 599.5 L945.9 592.1 L944.6 584.6 L943.3 577.3 L941.9 570.1 L940.5 563 L939 556 L937.4 549.2 L935.9 542.4 L934.2 535.8 L932.6 529.4 L930.9 523.1 L929.1 517 L927.3 511.1 L925.5 505.3 L923.7 499.8 L921.8 494.4 L919.9 489.3 L918 484.3 L916.1 479.5 L914.1 475 L912.1 470.7 L910.1 466.7 L908.1 462.8 L906.1 459.2 L904.1 455.9 L902 452.8 L900 449.9" fill="none" stroke="#0F2A4A" stroke-width="1.6"/><path d="M979.5 870.4 L984.3 868.4 L989 866 L993.5 863.5 L998 860.6 L1002.3 857.6 L1006.5 854.3 L1010.5 850.7 L1014.4 846.9 L1018.2 842.9 L1021.9 838.7 L1025.4 834.3 L1028.7 829.6 L1031.9 824.7 L1034.9 819.7 L1037.8 814.4 L1040.5 809 L1043 803.3 L1045.3 797.5 L1047.5 791.6 L1049.5 785.4 L1051.3 779.1 L1052.9 772.7 L1054.4 766.1 L1055.6 759.4 L1056.7 752.6 L1057.6 745.7 L1058.2 738.7 L1058.7 731.5 L1059 724.3 L1059.1 717 L1059 709.7 L1058.7 702.2 L1058.2 694.7 L1057.6 687.2 L1056.7 679.7 L1055.6 672.1 L1054.4 664.5 L1052.9 656.9 L1051.3 649.3 L1049.5 641.7 L1047.5 634.2 L1045.3 626.6 L1043 619.2 L1040.5 611.7 L1037.8 604.3 L1034.9 597 L1031.9 589.8 L1028.7 582.7 L1025.4 575.6 L1021.9 568.7 L1018.2 561.8 L1014.4 555.1 L1010.5 548.5 L1006.5 542 L1002.3 535.7 L998 529.6 L993.5 523.6 L989 517.7 L984.3 512.1 L979.5 506.6 L974.7 501.3 L969.7 496.2 L964.7 491.3 L959.6 486.6 L954.4 482.1 L949.2 477.8 L943.9 473.8 L938.5 470 L933.1 466.4 L927.6 463 L922.1 459.9 L916.6 457.1 L911.1 454.4 L905.6 452.1 L900 449.9" fill="none" stroke="#0F2A4A" stroke-width="1.6"/><path d="M1084.3 789 L1088.2 783.1 L1091.9 777 L1095.3 770.8 L1098.5 764.5 L1101.5 758 L1104.2 751.5 L1106.7 744.8 L1108.9 738 L1110.9 731.1 L1112.6 724.1 L1114 717 L1115.2 709.9 L1116.1 702.7 L1116.8 695.5 L1117.2 688.2 L1117.3 680.9 L1117.2 673.5 L1116.8 666.2 L1116.1 658.8 L1115.2 651.4 L1114 644.1 L1112.6 636.7 L1110.9 629.4 L1108.9 622.2 L1106.7 614.9 L1104.2 607.8 L1101.5 600.7 L1098.5 593.6 L1095.3 586.7 L1091.9 579.8 L1088.2 573 L1084.3 566.4 L1080.2 559.8 L1075.8 553.4 L1071.3 547.1 L1066.5 541 L1061.5 535 L1056.3 529.1 L1051 523.4 L1045.4 517.9 L1039.7 512.5 L1033.8 507.3 L1027.7 502.3 L1021.5 497.5 L1015.2 492.9 L1008.7 488.5 L1002 484.3 L995.3 480.4 L988.4 476.6 L981.4 473.1 L974.3 469.8 L967.2 466.7 L959.9 463.8 L952.6 461.2 L945.2 458.9 L937.7 456.8 L930.2 454.9 L922.7 453.3 L915.2 451.9 L907.6 450.8 L900 449.9" fill="none" stroke="#0F2A4A" stroke-width="1.6"/><path d="M1080.2 525.2 L1075.8 519.6 L1071.3 514.2 L1066.5 509 L1061.5 503.9 L1056.3 499.1 L1051 494.4 L1045.4 489.9 L1039.7 485.7 L1033.8 481.6 L1027.7 477.8 L1021.5 474.2 L1015.2 470.8 L1008.7 467.7 L1002 464.7 L995.3 462.1 L988.4 459.6 L981.4 457.4 L974.3 455.5 L967.2 453.8 L959.9 452.3 L952.6 451.1 L945.2 450.2 L937.7 449.5 L930.2 449.1 L922.7 448.9 L915.2 449 L907.6 449.3 L900 449.9" fill="none" stroke="#0F2A4A" stroke-width="1.6"/><path d="M974.7 447.8 L969.7 446.2 L964.7 444.9 L959.6 443.9 L954.4 443.1 L949.2 442.6 L943.9 442.4 L938.5 442.4 L933.1 442.7 L927.6 443.2 L922.1 444.1 L916.6 445.1 L911.1 446.5 L905.6 448.1 L900 449.9" fill="none" stroke="#0F2A4A" stroke-width="1.6"/><path d="M919.9 436 L918 436.2 L916.1 436.6 L914.1 437.3 L912.1 438.3 L910.1 439.6 L908.1 441.1 L906.1 443 L904.1 445 L902 447.4 L900 449.9" fill="none" stroke="#0F2A4A" stroke-width="1.6"/><path d="M880.1 436 L882 436.2 L883.9 436.6 L885.9 437.3 L887.9 438.3 L889.9 439.6 L891.9 441.1 L893.9 443 L895.9 445 L898 447.4 L900 449.9" fill="none" stroke="#0F2A4A" stroke-width="1.6"/><path d="M825.3 447.8 L830.3 446.2 L835.3 444.9 L840.4 443.9 L845.6 443.1 L850.8 442.6 L856.1 442.4 L861.5 442.4 L866.9 442.7 L872.4 443.2 L877.9 444.1 L883.4 445.1 L888.9 446.5 L894.4 448.1 L900 449.9" fill="none" stroke="#0F2A4A" stroke-width="1.6"/><path d="M719.8 525.2 L724.2 519.6 L728.7 514.2 L733.5 509 L738.5 503.9 L743.7 499.1 L749 494.4 L754.6 489.9 L760.3 485.7 L766.2 481.6 L772.3 477.8 L778.5 474.2 L784.8 470.8 L791.3 467.7 L798 464.7 L804.7 462.1 L811.6 459.6 L818.6 457.4 L825.7 455.5 L832.8 453.8 L840.1 452.3 L847.4 451.1 L854.8 450.2 L862.3 449.5 L869.8 449.1 L877.3 448.9 L884.8 449 L892.4 449.3 L900 449.9" fill="none" stroke="#0F2A4A" stroke-width="1.6"/><path d="M715.7 789 L711.8 783.1 L708.1 777 L704.7 770.8 L701.5 764.5 L698.5 758 L695.8 751.5 L693.3 744.8 L691.1 738 L689.1 731.1 L687.4 724.1 L686 717 L684.8 709.9 L683.9 702.7 L683.2 695.5 L682.8 688.2 L682.7 680.9 L682.8 673.5 L683.2 666.2 L683.9 658.8 L684.8 651.4 L686 644.1 L687.4 636.7 L689.1 629.4 L691.1 622.2 L693.3 614.9 L695.8 607.8 L698.5 600.7 L701.5 593.6 L704.7 586.7 L708.1 579.8 L711.8 573 L715.7 566.4 L719.8 559.8 L724.2 553.4 L728.7 547.1 L733.5 541 L738.5 535 L743.7 529.1 L749 523.4 L754.6 517.9 L760.3 512.5 L766.2 507.3 L772.3 502.3 L778.5 497.5 L784.8 492.9 L791.3 488.5 L798 484.3 L804.7 480.4 L811.6 476.6 L818.6 473.1 L825.7 469.8 L832.8 466.7 L840.1 463.8 L847.4 461.2 L854.8 458.9 L862.3 456.8 L869.8 454.9 L877.3 453.3 L884.8 451.9 L892.4 450.8 L900 449.9" fill="none" stroke="#0F2A4A" stroke-width="1.6"/><path d="M820.5 870.4 L815.7 868.4 L811 866 L806.5 863.5 L802 860.6 L797.7 857.6 L793.5 854.3 L789.5 850.7 L785.6 846.9 L781.8 842.9 L778.1 838.7 L774.6 834.3 L771.3 829.6 L768.1 824.7 L765.1 819.7 L762.2 814.4 L759.5 809 L757 803.3 L754.7 797.5 L752.5 791.6 L750.5 785.4 L748.7 779.1 L747.1 772.7 L745.6 766.1 L744.4 759.4 L743.3 752.6 L742.4 745.7 L741.8 738.7 L741.3 731.5 L741 724.3 L740.9 717 L741 709.7 L741.3 702.2 L741.8 694.7 L742.4 687.2 L743.3 679.7 L744.4 672.1 L745.6 664.5 L747.1 656.9 L748.7 649.3 L750.5 641.7 L752.5 634.2 L754.7 626.6 L757 619.2 L759.5 611.7 L762.2 604.3 L765.1 597 L768.1 589.8 L771.3 582.7 L774.6 575.6 L778.1 568.7 L781.8 561.8 L785.6 555.1 L789.5 548.5 L793.5 542 L797.7 535.7 L802 529.6 L806.5 523.6 L811 517.7 L815.7 512.1 L820.5 506.6 L825.3 501.3 L830.3 496.2 L835.3 491.3 L840.4 486.6 L845.6 482.1 L850.8 477.8 L856.1 473.8 L861.5 470 L866.9 466.4 L872.4 463 L877.9 459.9 L883.4 457.1 L888.9 454.4 L894.4 452.1 L900 449.9" fill="none" stroke="#0F2A4A" stroke-width="1.6"/><path d="M878.2 883.9 L876.3 883.6 L874.5 882.9 L872.7 882 L870.9 880.9 L869.1 879.4 L867.4 877.7 L865.8 875.7 L864.1 873.5 L862.6 871 L861 868.2 L859.5 865.2 L858.1 861.9 L856.7 858.4 L855.4 854.7 L854.1 850.7 L852.9 846.5 L851.7 842 L850.6 837.4 L849.6 832.5 L848.6 827.4 L847.7 822.1 L846.8 816.6 L846 810.9 L845.3 805 L844.6 799 L844 792.8 L843.5 786.4 L843 779.9 L842.7 773.2 L842.3 766.4 L842.1 759.4 L841.9 752.3 L841.8 745.2 L841.8 737.9 L841.8 730.5 L841.9 723 L842.1 715.5 L842.3 707.9 L842.7 700.2 L843 692.5 L843.5 684.8 L844 677 L844.6 669.2 L845.3 661.3 L846 653.5 L846.8 645.7 L847.7 637.9 L848.6 630.2 L849.6 622.4 L850.6 614.7 L851.7 607.1 L852.9 599.5 L854.1 592.1 L855.4 584.6 L856.7 577.3 L858.1 570.1 L859.5 563 L861 556 L862.6 549.2 L864.1 542.4 L865.8 535.8 L867.4 529.4 L869.1 523.1 L870.9 517 L872.7 511.1 L874.5 505.3 L876.3 499.8 L878.2 494.4 L880.1 489.3 L882 484.3 L883.9 479.5 L885.9 475 L887.9 470.7 L889.9 466.7 L891.9 462.8 L893.9 459.2 L895.9 455.9 L898 452.8 L900 449.9" fill="none" stroke="#0F2A4A" stroke-width="1.6"/><circle cx="900" cy="660" r="225" fill="none" stroke="#0F2A4A" stroke-width="3.5"/><line x1="900" y1="660" x2="900" y2="435" stroke="#0F2A4A" stroke-width="1.6"/><line x1="900" y1="435" x2="900" y2="317" stroke="#0F2A4A" stroke-width="4"/><path d="M900 305 L906.8 327 L893.2 327 Z" fill="#0F2A4A"/><path transform="translate(916.20 317.60)" d="M11.159999999999998 3.384Q9.719999999999999 3.384 8.712 2.9699999999999998Q7.704 2.5559999999999996 6.93 1.9619999999999997Q6.156 1.3679999999999999 5.4719999999999995 0.7739999999999999Q4.787999999999999 0.18 4.013999999999999 -0.23399999999999996Q3.2399999999999998 -0.6479999999999999 2.2319999999999998 -0.6479999999999999Q1.6199999999999999 -0.6479999999999999 1.17 -0.44999999999999996Q0.72 -0.252 0.10799999999999998 0.36L-0.8639999999999999 -0.612L11.484 -13.716V-13.895999999999999H6.119999999999999Q5.076 -13.895999999999999 4.481999999999999 -13.59Q3.888 -13.283999999999999 3.546 -12.617999999999999Q3.2039999999999997 -11.952 2.844 -10.799999999999999H1.5479999999999998L2.916 -16.811999999999998H15.839999999999998L15.767999999999999 -15.515999999999998L4.608 -3.7079999999999997V-3.5279999999999996Q5.616 -3.42 6.372 -2.808Q7.127999999999999 -2.1959999999999997 7.739999999999998 -1.386Q8.351999999999999 -0.576 8.945999999999998 0.23399999999999993Q9.54 1.0439999999999998 10.169999999999998 1.5839999999999996Q10.799999999999999 2.1239999999999997 11.627999999999998 2.1239999999999997Q12.239999999999998 2.1239999999999997 12.491999999999999 1.8719999999999999Q12.744 1.6199999999999999 12.744 1.26Q12.744 0.8639999999999999 12.51 0.35999999999999993Q12.276 -0.144 12.276 -0.828Q12.276 -1.404 12.672 -1.9979999999999998Q13.068 -2.5919999999999996 13.967999999999998 -2.5919999999999996Q14.867999999999999 -2.5919999999999996 15.354 -1.9439999999999997Q15.839999999999998 -1.2959999999999998 15.839999999999998 -0.18Q15.839999999999998 0.8639999999999999 15.407999999999998 1.5659999999999998Q14.975999999999999 2.268 14.274 2.6639999999999997Q13.572 3.0599999999999996 12.762 3.2219999999999995Q11.952 3.384 11.159999999999998 3.384Z" fill="#0F2A4A" /><line x1="900" y1="660" x2="1125" y2="660" stroke="#0F2A4A" stroke-width="1.6"/><line x1="1125" y1="660" x2="1243" y2="660" stroke="#0F2A4A" stroke-width="4"/><path d="M1255 660 L1233 666.8 L1233 653.2 Z" fill="#0F2A4A"/><path transform="translate(1260.40 697.80)" d="M-8.208 7.919999999999999Q-8.927999999999999 7.919999999999999 -9.684 7.649999999999999Q-10.44 7.379999999999999 -10.943999999999999 6.786Q-11.448 6.191999999999999 -11.448 5.364Q-11.448 4.5 -10.98 4.068Q-10.512 3.6359999999999997 -9.828 3.6359999999999997Q-9.216 3.6359999999999997 -8.783999999999999 3.96Q-8.352 4.284 -8.046 4.734Q-7.74 5.183999999999999 -7.4879999999999995 5.507999999999999Q-7.236 5.832 -6.984 5.832Q-6.6240000000000006 5.832 -5.976000000000001 5.183999999999999Q-5.328 4.536 -4.554 3.5639999999999996Q-3.7800000000000002 2.5919999999999996 -3.096 1.638Q-2.412 0.6839999999999999 -2.0520000000000005 0.10799999999999998L-0.14400000000000013 -3.1679999999999997H0.6839999999999993L4.68 -9.395999999999999Q5.2559999999999985 -10.296 5.543999999999999 -11.033999999999999Q5.831999999999999 -11.771999999999998 5.831999999999999 -12.276Q5.831999999999999 -12.995999999999999 5.417999999999999 -13.5Q5.004 -14.004 4.553999999999999 -14.544Q4.103999999999999 -15.084 4.103999999999999 -15.803999999999998Q4.103999999999999 -16.488 4.571999999999999 -16.938Q5.039999999999999 -17.387999999999998 5.8679999999999986 -17.387999999999998Q6.947999999999999 -17.387999999999998 7.613999999999999 -16.631999999999998Q8.28 -15.876 8.28 -14.472Q8.28 -13.463999999999999 7.901999999999999 -12.239999999999998Q7.523999999999999 -11.016 6.623999999999999 -9.504Q5.9399999999999995 -8.315999999999999 5.111999999999999 -7.037999999999999Q4.283999999999999 -5.76 3.4559999999999995 -4.572Q2.628 -3.384 1.944 -2.412Q1.2599999999999998 -1.44 0.863999999999999 -0.8999999999999999Q-1.2240000000000002 2.016 -2.736 3.9779999999999998Q-4.248 5.9399999999999995 -5.508 6.93Q-6.768 7.919999999999999 -8.208 7.919999999999999ZM0.46799999999999997 -2.5919999999999996 -2.232 1.0799999999999998 -4.572 -12.132Q-4.716 -13.031999999999998 -4.932 -13.823999999999998Q-5.148 -14.616 -5.652 -15.084Q-6.156000000000001 -15.552 -7.236 -15.552Q-7.524 -15.552 -7.83 -15.533999999999999Q-8.136 -15.515999999999998 -8.28 -15.479999999999999V-16.703999999999997L-3.168 -17.099999999999998H-2.1960000000000006Q-1.8000000000000007 -16.416 -1.5480000000000005 -15.732Q-1.2960000000000003 -15.047999999999998 -1.0980000000000003 -14.111999999999998Q-0.9000000000000004 -13.175999999999998 -0.6480000000000006 -11.735999999999999L0.14400000000000013 -6.803999999999999Z" fill="#0F2A4A" /><line x1="900" y1="660" x2="740.9" y2="819.1" stroke="#0F2A4A" stroke-width="1.6"/><line x1="740.9" y1="819.1" x2="657.5" y2="902.5" stroke="#0F2A4A" stroke-width="4"/><path d="M649 911 L659.7 890.7 L669.3 900.3 Z" fill="#0F2A4A"/><path transform="translate(627.38 941.62)" d="M3.276 0.36Q1.8360000000000003 0.36 1.1340000000000003 -0.558Q0.4320000000000004 -1.476 0.036000000000001364 -3.2399999999999998L-0.9719999999999995 -7.343999999999999L-1.331999999999999 -7.919999999999999L-2.411999999999999 -11.591999999999999Q-2.8439999999999994 -13.104 -3.293999999999999 -13.931999999999999Q-3.743999999999999 -14.759999999999998 -4.409999999999998 -15.084Q-5.075999999999999 -15.408 -6.191999999999998 -15.408Q-6.515999999999999 -15.408 -6.8039999999999985 -15.372Q-7.091999999999999 -15.335999999999999 -7.3439999999999985 -15.299999999999999V-16.523999999999997L-2.411999999999999 -17.099999999999998H-1.1159999999999997Q-0.5039999999999996 -16.343999999999998 -0.05399999999999938 -15.281999999999998Q0.3960000000000008 -14.219999999999999 0.7560000000000002 -12.744L1.2240000000000002 -10.511999999999999L1.5840000000000014 -9.755999999999998L2.484 -6.803999999999999Q3.2040000000000006 -4.572 3.7620000000000005 -3.564Q4.32 -2.5559999999999996 5.0760000000000005 -2.5559999999999996Q5.795999999999999 -2.5559999999999996 6.372 -3.0959999999999996Q6.948 -3.6359999999999997 7.596 -4.536L8.46 -3.9239999999999995Q8.100000000000001 -3.312 7.578000000000001 -2.574Q7.056000000000001 -1.8359999999999999 6.408 -1.17Q5.76 -0.504 4.986 -0.07200000000000001Q4.212 0.36 3.276 0.36ZM-7.631999999999999 0.36Q-8.783999999999999 0.36 -9.287999999999998 -0.23399999999999999Q-9.791999999999998 -0.828 -9.791999999999998 -1.5119999999999998Q-9.791999999999998 -2.1599999999999997 -9.377999999999998 -2.646Q-8.963999999999999 -3.1319999999999997 -8.28 -3.1319999999999997Q-7.739999999999998 -3.1319999999999997 -7.1099999999999985 -2.8979999999999997Q-6.479999999999999 -2.6639999999999997 -6.047999999999998 -2.6639999999999997Q-5.8679999999999986 -2.6639999999999997 -5.615999999999999 -2.772Q-5.363999999999999 -2.88 -4.949999999999999 -3.276Q-4.536 -3.6719999999999997 -3.959999999999999 -4.572L-1.2239999999999993 -8.712L-0.4319999999999986 -6.84H-1.0439999999999996L-3.203999999999999 -3.1319999999999997Q-3.9959999999999987 -1.7279999999999998 -4.985999999999999 -0.6839999999999999Q-5.975999999999999 0.36 -7.631999999999999 0.36ZM3.8520000000000003 -12.744 1.4760000000000009 -9.0 0.7560000000000002 -10.908H1.2960000000000012L2.9880000000000013 -13.823999999999998Q3.492000000000001 -14.723999999999998 4.122000000000001 -15.497999999999998Q4.752000000000001 -16.272 5.598000000000001 -16.775999999999996Q6.444000000000001 -17.279999999999998 7.559999999999999 -17.279999999999998Q8.604 -17.279999999999998 9.054 -16.83Q9.504000000000001 -16.38 9.504000000000001 -15.588Q9.504000000000001 -14.759999999999998 9.0 -14.273999999999997Q8.495999999999999 -13.787999999999998 7.776 -13.787999999999998Q7.199999999999999 -13.787999999999998 6.731999999999999 -14.003999999999998Q6.263999999999999 -14.219999999999999 5.76 -14.219999999999999Q5.184000000000001 -14.219999999999999 4.752000000000001 -13.86Q4.32 -13.499999999999998 3.8520000000000003 -12.744Z" fill="#0F2A4A" /><line x1="900" y1="660" x2="465" y2="344" stroke="#0F2A4A" stroke-width="3.5" stroke-dasharray="10.5 7.700000000000001" stroke-linecap="round"/><path d="M862 698 L859.3 697.6 L856.5 697.2 L853.8 696.8 L851.1 696.3 L848.5 695.8 L845.9 695.3 L843.3 694.8 L840.8 694.3 L838.3 693.7 L835.8 693.1 L833.4 692.5 L831 691.9 L828.7 691.2 L826.5 690.5 L824.3 689.8 L822.1 689.1 L820 688.3 L817.9 687.6 L815.9 686.8 L814 686 L812.1 685.2 L810.3 684.3 L808.5 683.5 L806.9 682.6 L805.2 681.7 L803.7 680.8 L802.2 679.9 L800.7 679 L799.4 678 L798.1 677.1 L796.9 676.1 L795.7 675.1 L794.7 674.2 L793.7 673.2 L792.7 672.1 L791.9 671.1 L791.1 670.1 L790.4 669.1 L789.8 668 L789.2 667" fill="none" stroke="#0F2A4A" stroke-width="3" stroke-linecap="round"/><path d="M789.2 667 L798.3 674.1 L791.1 678.4 Z" fill="#0F2A4A"/><path d="M900 525 L896.8 525 L893.6 525.1 L890.5 525.3 L887.3 525.6 L884.1 525.9 L881 526.3 L877.8 526.8 L874.7 527.4 L871.6 528 L868.5 528.7 L865.4 529.5 L862.3 530.4 L859.3 531.3 L856.3 532.3 L853.3 533.3 L850.3 534.5 L847.4 535.7 L844.4 537 L841.6 538.3 L838.7 539.7 L835.9 541.2 L833.1 542.7 L830.4 544.3 L827.7 546 L825 547.8 L822.4 549.5 L819.8 551.4 L817.3 553.3 L814.8 555.3 L812.3 557.3 L809.9 559.4 L807.6 561.6 L805.3 563.8 L803.1 566.1 L800.9 568.4 L798.7 570.7 L796.7 573.1 L794.6 575.6 L792.7 578.1 L790.8 580.6" fill="none" stroke="#0F2A4A" stroke-width="3" stroke-linecap="round"/><path transform="translate(800.89 720.63)" d="M-2.120000000000001 0.56Q-4.92 0.56 -6.6000000000000005 -1.68Q-8.280000000000001 -3.92 -8.280000000000001 -8.48Q-8.280000000000001 -11.6 -7.680000000000001 -14.559999999999999Q-7.08 -17.52 -5.96 -20.060000000000002Q-4.84 -22.6 -3.3 -24.520000000000003Q-1.7599999999999998 -26.44 0.10000000000000053 -27.520000000000003Q1.9600000000000009 -28.6 4.0 -28.6Q5.960000000000001 -28.6 7.18 -27.36Q8.399999999999999 -26.12 8.979999999999999 -23.96Q9.559999999999999 -21.8 9.559999999999999 -18.96Q9.559999999999999 -14.52 8.66 -10.92Q7.760000000000002 -7.32 6.140000000000001 -4.76Q4.52 -2.2 2.42 -0.8200000000000001Q0.3200000000000003 0.56 -2.120000000000001 0.56ZM-1.1999999999999993 -3.48Q1.08 -3.48 2.7 -4.74Q4.32 -6.0 5.380000000000001 -8.100000000000001Q6.440000000000001 -10.200000000000001 6.940000000000001 -12.760000000000002Q7.440000000000001 -15.32 7.440000000000001 -17.84Q7.440000000000001 -19.6 7.020000000000001 -21.14Q6.600000000000001 -22.68 5.640000000000001 -23.64Q4.68 -24.6 3.039999999999999 -24.6Q0.8800000000000008 -24.6 -0.7999999999999998 -23.3Q-2.4800000000000004 -22.0 -3.66 -19.880000000000003Q-4.84 -17.76 -5.4399999999999995 -15.22Q-6.04 -12.68 -6.04 -10.200000000000001Q-6.04 -7.8 -5.36 -6.3Q-4.680000000000001 -4.8 -3.5800000000000005 -4.14Q-2.4800000000000004 -3.48 -1.1999999999999993 -3.48ZM7.52 -13.44H-6.36L-5.92 -15.6H7.879999999999999Z" fill="#0F2A4A" /><path transform="translate(822.37 519.64)" d="M-3.4800000000000004 0.36Q-6.04 0.36 -7.640000000000001 -0.6000000000000001Q-9.24 -1.56 -10.02 -3.2800000000000002Q-10.8 -5.0 -10.8 -7.2Q-10.8 -9.28 -10.26 -11.32Q-9.719999999999999 -13.36 -8.5 -15.1Q-7.28 -16.84 -5.279999999999999 -18.04Q-3.2799999999999994 -19.240000000000002 -0.27999999999999936 -19.56Q-0.08000000000000007 -19.36 0.020000000000000462 -19.02Q0.120000000000001 -18.68 0.120000000000001 -18.28Q0.120000000000001 -17.32 -0.3199999999999994 -16.72Q-0.7599999999999998 -16.12 -1.7200000000000006 -15.8Q-3.6799999999999997 -15.280000000000001 -5.32 -14.34Q-6.96 -13.4 -7.960000000000001 -11.940000000000001Q-8.96 -10.48 -8.96 -8.28Q-8.96 -6.44 -8.040000000000001 -5.380000000000001Q-7.12 -4.32 -5.68 -3.9000000000000004Q-4.24 -3.48 -2.6400000000000006 -3.48Q2.84 -3.48 5.76 -5.46Q8.68 -7.44 8.68 -11.32Q8.68 -13.24 7.859999999999999 -14.06Q7.039999999999999 -14.88 5.760000000000002 -14.88Q4.039999999999999 -14.88 2.88 -13.68Q1.7200000000000006 -12.48 1.04 -10.64Q0.35999999999999943 -8.8 -0.03999999999999915 -6.92L-0.8399999999999999 -2.96L-3.4800000000000004 -2.88L-2.6799999999999997 -6.4Q-1.879999999999999 -10.0 -0.5799999999999992 -12.8Q0.7200000000000006 -15.6 2.46 -17.22Q4.199999999999999 -18.84 6.32 -18.84Q8.400000000000002 -18.84 9.600000000000001 -17.12Q10.8 -15.4 10.8 -12.280000000000001Q10.8 -8.32 9.0 -5.48Q7.199999999999999 -2.64 4.0 -1.1400000000000001Q0.8000000000000007 0.36 -3.4800000000000004 0.36ZM-6.04 8.68 -6.64 8.56 -4.28 -0.2 -1.3200000000000003 -0.48Q-1.5600000000000005 1.6 -1.6400000000000006 3.46Q-1.7200000000000006 5.32 -2.3200000000000003 6.68Q-2.6400000000000006 7.36 -3.1800000000000006 7.800000000000001Q-3.7200000000000006 8.24 -4.460000000000001 8.440000000000001Q-5.2 8.64 -6.04 8.68Z" fill="#0F2A4A" /><path d="M754.4 539.2 L758.1 549.1 L768.6 549.6 L760.4 556.1 L763.2 566.3 L754.4 560.5 L745.6 566.3 L748.4 556.1 L740.1 549.6 L750.7 549.1 Z" fill="#0F2A4A" stroke="#F4F0E8" stroke-width="3.5999999999999996" stroke-linejoin="round" paint-order="stroke"/><path transform="translate(675.00 476.39)" d="M-12.443 9.936 -13.271 9.798Q-12.213000000000001 5.1979999999999995 -11.316 1.0809999999999997Q-10.419 -3.036 -9.683 -6.348Q-7.797000000000001 -14.812 -4.485 -18.469Q-1.173 -22.126 4.025 -22.126Q5.7269999999999985 -22.126 7.129999999999999 -21.320999999999998Q8.533 -20.516 9.383999999999999 -18.768Q10.234999999999998 -17.02 10.188999999999998 -14.168Q10.188999999999998 -11.224 9.338 -8.579Q8.487 -5.934 6.946 -3.887Q5.404999999999999 -1.8399999999999999 3.334999999999999 -0.6669999999999999Q1.2649999999999988 0.506 -1.2190000000000012 0.506Q-3.013 0.506 -4.094 -0.345Q-5.175000000000001 -1.196 -5.75 -2.4379999999999997Q-6.325 -3.6799999999999997 -6.647 -4.83H-7.015000000000001Q-7.291 -2.576 -7.383000000000001 -0.759Q-7.4750000000000005 1.058 -7.498 2.53Q-7.521 4.002 -7.659000000000001 5.221Q-7.797000000000001 6.4399999999999995 -8.165000000000001 7.498Q-8.487 8.418 -9.131 8.947Q-9.775 9.475999999999999 -10.603000000000002 9.683Q-11.431000000000001 9.89 -12.443 9.936ZM-0.8049999999999997 -3.818Q1.5410000000000004 -3.818 3.4959999999999996 -4.807Q5.450999999999999 -5.796 6.600999999999999 -7.705Q7.7509999999999994 -9.613999999999999 7.7509999999999994 -12.282Q7.7509999999999994 -14.352 7.014999999999999 -15.525Q6.278999999999998 -16.698 5.105999999999999 -17.158Q3.933 -17.618 2.690999999999999 -17.618Q1.2189999999999994 -17.618 -0.2760000000000007 -17.112Q-1.7710000000000008 -16.605999999999998 -3.013000000000001 -15.547999999999998Q-4.255000000000001 -14.49 -5.037000000000001 -12.857Q-5.819 -11.224 -5.819 -9.016Q-5.819 -6.394 -4.393000000000001 -5.106Q-2.9670000000000005 -3.818 -0.8049999999999997 -3.818Z" fill="#0F2A4A" /><path transform="translate(599.46 468.84) rotate(36.00)" d="M-120.36750000000004 -5.1315Q-120.36750000000004 -6.336 -120.09525000000004 -7.449750000000001Q-119.82300000000004 -8.563500000000001 -119.35275000000004 -9.520500000000002Q-118.88250000000004 -10.477500000000001 -118.25550000000004 -11.24475Q-117.62850000000005 -12.012 -116.93550000000005 -12.540000000000001H-115.59900000000005Q-116.32500000000005 -11.9955 -116.96025000000004 -11.277750000000001Q-117.59550000000004 -10.56 -118.08225000000004 -9.71025Q-118.56900000000005 -8.8605 -118.84950000000003 -7.87875Q-119.13000000000004 -6.897 -119.13000000000004 -5.841V-4.422000000000001Q-119.13000000000004 -3.366 -118.84950000000003 -2.38425Q-118.56900000000005 -1.4025 -118.08225000000004 -0.5527500000000001Q-117.59550000000004 0.29700000000000004 -116.96025000000004 1.01475Q-116.32500000000005 1.7325000000000002 -115.59900000000005 2.277H-116.93550000000005Q-117.62850000000005 1.7655 -118.25550000000004 0.99Q-118.88250000000004 0.21450000000000002 -119.35275000000004 -0.7424999999999999Q-119.82300000000004 -1.6995 -120.09525000000004 -2.81325Q-120.36750000000004 -3.927 -120.36750000000004 -5.1315ZM-108.88350000000004 0.198Q-109.79100000000004 0.198 -110.51700000000004 -0.10725000000000001Q-111.24300000000004 -0.41250000000000003 -111.74625000000003 -0.9817500000000001Q-112.24950000000004 -1.5510000000000002 -112.52175000000004 -2.3760000000000003Q-112.79400000000004 -3.201 -112.79400000000004 -4.224Q-112.79400000000004 -5.511 -112.40625000000003 -6.64125Q-112.01850000000003 -7.7715000000000005 -111.41625000000003 -8.703750000000001Q-110.81400000000004 -9.636000000000001 -110.07150000000004 -10.353750000000002Q-109.32900000000004 -11.0715 -108.61950000000003 -11.517000000000001H-106.83750000000003Q-107.77800000000003 -10.8405 -108.51225000000004 -10.197Q-109.24650000000004 -9.5535 -109.80750000000003 -8.85225Q-110.36850000000004 -8.151 -110.74800000000005 -7.35075Q-111.12750000000004 -6.5505 -111.37500000000004 -5.5440000000000005L-111.29250000000003 -5.511Q-110.88000000000004 -6.2205 -110.20350000000005 -6.69075Q-109.52700000000004 -7.1610000000000005 -108.45450000000004 -7.1610000000000005Q-107.69550000000004 -7.1610000000000005 -107.06850000000003 -6.913500000000001Q-106.44150000000003 -6.666 -105.97950000000003 -6.204000000000001Q-105.51750000000004 -5.742 -105.26175000000003 -5.082000000000001Q-105.00600000000003 -4.422000000000001 -105.00600000000003 -3.6135Q-105.00600000000003 -2.7720000000000002 -105.28650000000003 -2.0707500000000003Q-105.56700000000004 -1.3695000000000002 -106.07025000000004 -0.8662500000000001Q-106.57350000000004 -0.363 -107.29125000000005 -0.08249999999999999Q-108.00900000000004 0.198 -108.88350000000004 0.198ZM-108.90000000000003 -0.9735Q-107.71200000000003 -0.9735 -107.06025000000002 -1.617Q-106.40850000000003 -2.2605 -106.40850000000003 -3.4320000000000004V-3.564Q-106.40850000000003 -4.7355 -107.06025000000002 -5.379Q-107.71200000000003 -6.0225 -108.90000000000003 -6.0225Q-110.08800000000004 -6.0225 -110.73975000000004 -5.379Q-111.39150000000004 -4.7355 -111.39150000000004 -3.564V-3.4320000000000004Q-111.39150000000004 -2.2605 -110.73975000000004 -1.617Q-110.08800000000004 -0.9735 -108.90000000000003 -0.9735ZM-99.49500000000003 -6.633Q-98.29050000000004 -6.633 -97.68825000000004 -7.16925Q-97.08600000000003 -7.705500000000001 -97.08600000000003 -8.547V-8.6625Q-97.08600000000003 -9.586500000000001 -97.67175000000003 -10.0485Q-98.25750000000004 -10.5105 -99.19800000000004 -10.5105Q-100.12200000000003 -10.5105 -100.69125000000003 -10.10625Q-101.26050000000004 -9.702 -101.62350000000004 -9.042L-102.66300000000003 -9.834Q-102.44850000000002 -10.1805 -102.13500000000002 -10.51875Q-101.82150000000003 -10.857000000000001 -101.40075000000003 -11.121Q-100.98000000000003 -11.385 -100.42725000000003 -11.55Q-99.87450000000003 -11.715 -99.16500000000003 -11.715Q-98.42250000000003 -11.715 -97.77900000000002 -11.52525Q-97.13550000000004 -11.3355 -96.65700000000004 -10.96425Q-96.17850000000003 -10.593 -95.90625000000003 -10.0485Q-95.63400000000003 -9.504000000000001 -95.63400000000003 -8.811Q-95.63400000000003 -8.25 -95.80725000000004 -7.8045Q-95.98050000000003 -7.359 -96.28575000000004 -7.029Q-96.59100000000004 -6.699000000000001 -97.00350000000003 -6.468Q-97.41600000000003 -6.237 -97.87800000000003 -6.1215V-6.0555Q-97.39950000000003 -5.9565 -96.95400000000004 -5.733750000000001Q-96.50850000000003 -5.511 -96.16200000000003 -5.15625Q-95.81550000000003 -4.8015 -95.60925000000003 -4.29825Q-95.40300000000003 -3.7950000000000004 -95.40300000000003 -3.1515Q-95.40300000000003 -2.4090000000000003 -95.69175000000004 -1.7902500000000001Q-95.98050000000003 -1.1715 -96.50025000000002 -0.7342500000000001Q-97.02000000000002 -0.29700000000000004 -97.75425000000003 -0.049500000000000016Q-98.48850000000003 0.198 -99.37950000000004 0.198Q-100.13850000000004 0.198 -100.72425000000004 0.033Q-101.31000000000003 -0.132 -101.76375000000003 -0.41250000000000003Q-102.21750000000003 -0.6930000000000001 -102.55575000000003 -1.0395Q-102.89400000000003 -1.3860000000000001 -103.15800000000003 -1.7655L-102.11850000000003 -2.5575Q-101.88750000000003 -2.2110000000000003 -101.64000000000003 -1.9305000000000003Q-101.39250000000003 -1.6500000000000001 -101.07075000000003 -1.44375Q-100.74900000000004 -1.2375 -100.33650000000003 -1.1219999999999999Q-99.92400000000004 -1.0065 -99.37950000000004 -1.0065Q-98.15850000000003 -1.0065 -97.50675000000004 -1.5675000000000001Q-96.85500000000003 -2.1285000000000003 -96.85500000000003 -3.168V-3.3000000000000003Q-96.85500000000003 -4.323 -97.49025000000003 -4.884Q-98.12550000000003 -5.445 -99.39600000000003 -5.445H-100.76550000000003V-6.633ZM-91.19550000000002 0.0 -86.69100000000003 -10.329H-91.74000000000002V-8.184000000000001H-92.97750000000002V-11.517000000000001H-85.28850000000003V-10.296000000000001L-89.71050000000002 0.0ZM-82.74750000000002 0.0V-1.2045000000000001H-79.44750000000002V-10.494H-79.56300000000002L-82.46700000000001 -7.788L-83.27550000000002 -8.6625L-80.22300000000001 -11.517000000000001H-78.06150000000002V-1.2045000000000001H-75.02550000000002V0.0ZM-62.61750000000001 -12.21H-61.29750000000001V-4.5045H-61.23150000000001L-59.74650000000001 -5.907L-56.90850000000001 -8.514000000000001H-55.291500000000006L-58.822500000000005 -5.181L-54.879000000000005 0.0H-56.51250000000001L-59.82900000000001 -4.422000000000001L-61.29750000000001 -3.0855V0.0H-62.61750000000001ZM-53.55900000000001 0.0V-8.514000000000001H-52.33800000000001V-7.524H-52.27200000000001Q-52.07400000000001 -8.019 -51.71100000000001 -8.3655Q-51.34800000000001 -8.712 -50.63850000000001 -8.712Q-49.89600000000001 -8.712 -49.53300000000001 -8.34075Q-49.17000000000001 -7.9695 -49.08750000000001 -7.375500000000001H-49.03800000000001Q-48.80700000000001 -7.953 -48.378000000000014 -8.3325Q-47.94900000000001 -8.712 -47.19000000000001 -8.712Q-46.15050000000001 -8.712 -45.79575000000001 -7.986000000000001Q-45.44100000000001 -7.260000000000001 -45.44100000000001 -5.907V0.0H-46.662000000000006V-5.6925Q-46.662000000000006 -6.7815 -46.88475000000001 -7.20225Q-47.10750000000001 -7.623 -47.70150000000001 -7.623Q-48.22950000000001 -7.623 -48.559500000000014 -7.284750000000001Q-48.88950000000001 -6.9465 -48.88950000000001 -6.253500000000001V0.0H-50.11050000000001V-5.6925Q-50.11050000000001 -6.7815 -50.33325000000001 -7.20225Q-50.55600000000001 -7.623 -51.13350000000001 -7.623Q-51.66150000000001 -7.623 -51.999750000000006 -7.284750000000001Q-52.33800000000001 -6.9465 -52.33800000000001 -6.253500000000001V0.0ZM-40.309500000000014 -2.244H-38.18100000000001L-40.07850000000001 2.3265000000000002H-41.18400000000001ZM-23.727000000000015 -4.4715V-5.593500000000001H-15.873000000000014V-4.4715ZM-13.447500000000014 0.0V-1.2045000000000001H-10.147500000000013V-10.494H-10.263000000000012L-13.167000000000014 -7.788L-13.975500000000014 -8.6625L-10.923000000000014 -11.517000000000001H-8.761500000000012V-1.2045000000000001H-5.725500000000013V0.0ZM3.9104999999999865 0.0H-3.7785000000000135V-1.419L0.06599999999998651 -4.884Q0.9074999999999864 -5.643000000000001 1.4519999999999866 -6.443250000000001Q1.9964999999999868 -7.2435 1.9964999999999868 -8.134500000000001V-8.3325Q1.9964999999999868 -9.372 1.4519999999999866 -9.94125Q0.9074999999999864 -10.5105 -0.16500000000001336 -10.5105Q-1.2210000000000134 -10.5105 -1.7902500000000134 -9.974250000000001Q-2.3595000000000135 -9.438 -2.6400000000000134 -8.547L-3.8775000000000137 -9.009Q-3.7125000000000137 -9.5205 -3.4237500000000134 -10.007249999999999Q-3.135000000000013 -10.494 -2.689500000000013 -10.8735Q-2.2440000000000135 -11.253 -1.6087500000000134 -11.484Q-0.9735000000000134 -11.715 -0.132000000000013 -11.715Q0.7259999999999867 -11.715 1.3942499999999867 -11.467500000000001Q2.0624999999999867 -11.22 2.5162499999999866 -10.7745Q2.9699999999999864 -10.329 3.2092499999999866 -9.7185Q3.448499999999987 -9.108 3.448499999999987 -8.382Q3.448499999999987 -7.722 3.2587499999999867 -7.144500000000001Q3.0689999999999866 -6.567 2.7307499999999867 -6.039Q2.3924999999999867 -5.511 1.9222499999999867 -5.00775Q1.4519999999999866 -4.5045 0.874499999999987 -4.0095L-2.3430000000000133 -1.2045000000000001H3.9104999999999865ZM6.352499999999987 0.0V-1.2045000000000001H9.652499999999987V-10.494H9.536999999999988L6.632999999999987 -7.788L5.824499999999987 -8.6625L8.876999999999986 -11.517000000000001H11.038499999999988V-1.2045000000000001H14.074499999999988V0.0ZM19.799999999999986 0.14850000000000002Q19.123499999999986 0.14850000000000002 18.851249999999986 -0.132Q18.578999999999986 -0.41250000000000003 18.578999999999986 -0.8415V-1.1385Q18.578999999999986 -1.5675000000000001 18.851249999999986 -1.8480000000000003Q19.123499999999986 -2.1285000000000003 19.799999999999986 -2.1285000000000003Q20.476499999999987 -2.1285000000000003 20.748749999999987 -1.8480000000000003Q21.020999999999987 -1.5675000000000001 21.020999999999987 -1.1385V-0.8415Q21.020999999999987 -0.41250000000000003 20.748749999999987 -0.132Q20.476499999999987 0.14850000000000002 19.799999999999986 0.14850000000000002ZM27.604499999999987 0.0 32.10899999999999 -10.329H27.059999999999985V-8.184000000000001H25.822499999999987V-11.517000000000001H33.511499999999984V-10.296000000000001L29.089499999999987 0.0ZM39.59999999999999 -6.072Q39.005999999999986 -6.072 38.49449999999999 -6.2865Q37.98299999999998 -6.501 37.59524999999998 -6.8805000000000005Q37.20749999999998 -7.260000000000001 36.99299999999998 -7.77975Q36.77849999999999 -8.2995 36.77849999999999 -8.893500000000001Q36.77849999999999 -9.4875 36.99299999999998 -10.00725Q37.20749999999998 -10.527000000000001 37.59524999999998 -10.906500000000001Q37.98299999999998 -11.286000000000001 38.49449999999999 -11.5005Q39.005999999999986 -11.715 39.59999999999999 -11.715Q40.19399999999999 -11.715 40.70549999999999 -11.5005Q41.216999999999985 -11.286000000000001 41.60474999999998 -10.906500000000001Q41.992499999999986 -10.527000000000001 42.20699999999999 -10.00725Q42.42149999999999 -9.4875 42.42149999999999 -8.893500000000001Q42.42149999999999 -8.2995 42.20699999999999 -7.77975Q41.992499999999986 -7.260000000000001 41.60474999999998 -6.8805000000000005Q41.216999999999985 -6.501 40.70549999999999 -6.2865Q40.19399999999999 -6.072 39.59999999999999 -6.072ZM39.59999999999999 -7.128Q40.35899999999999 -7.128 40.81274999999999 -7.6395Q41.266499999999986 -8.151 41.266499999999986 -8.893500000000001Q41.266499999999986 -9.636000000000001 40.81274999999999 -10.1475Q40.35899999999999 -10.659 39.59999999999999 -10.659Q38.84099999999999 -10.659 38.38724999999998 -10.1475Q37.93349999999998 -9.636000000000001 37.93349999999998 -8.893500000000001Q37.93349999999998 -8.151 38.38724999999998 -7.6395Q38.84099999999999 -7.128 39.59999999999999 -7.128ZM48.79049999999998 -2.244H50.91899999999998L49.02149999999998 2.3265000000000002H47.91599999999998ZM72.61649999999997 -10.3125H67.46849999999998L67.13849999999998 -5.907H67.25399999999998Q67.68299999999998 -6.484500000000001 68.21099999999998 -6.822750000000001Q68.73899999999998 -7.1610000000000005 69.66299999999998 -7.1610000000000005Q70.42199999999998 -7.1610000000000005 71.05724999999998 -6.92175Q71.69249999999998 -6.6825 72.15449999999998 -6.2205Q72.61649999999997 -5.758500000000001 72.88049999999998 -5.10675Q73.14449999999998 -4.455 73.14449999999998 -3.6135Q73.14449999999998 -2.7720000000000002 72.88049999999998 -2.0707500000000003Q72.61649999999997 -1.3695000000000002 72.10499999999998 -0.8662500000000001Q71.59349999999998 -0.363 70.86749999999998 -0.08249999999999999Q70.14149999999998 0.198 69.21749999999999 0.198Q68.49149999999997 0.198 67.92224999999998 0.033Q67.35299999999998 -0.132 66.91574999999997 -0.41250000000000003Q66.47849999999998 -0.6930000000000001 66.14849999999998 -1.0395Q65.81849999999999 -1.3860000000000001 65.55449999999998 -1.7655L66.59399999999998 -2.5575Q66.82499999999997 -2.2110000000000003 67.06424999999999 -1.9305000000000003Q67.30349999999999 -1.6500000000000001 67.61699999999999 -1.44375Q67.93049999999998 -1.2375 68.32649999999998 -1.1219999999999999Q68.72249999999998 -1.0065 69.25049999999997 -1.0065Q70.43849999999998 -1.0065 71.07374999999998 -1.6500000000000001Q71.70899999999997 -2.2935000000000003 71.70899999999997 -3.4320000000000004V-3.564Q71.70899999999997 -4.702500000000001 71.06549999999999 -5.346Q70.42199999999998 -5.9895000000000005 69.21749999999999 -5.9895000000000005Q68.39249999999998 -5.9895000000000005 67.93874999999998 -5.7090000000000005Q67.48499999999999 -5.4285000000000005 67.10549999999998 -5.016L65.93399999999998 -5.181L66.34649999999998 -11.517000000000001H72.61649999999997ZM75.65249999999999 0.0V-1.2045000000000001H78.95249999999999V-10.494H78.83699999999999L75.93299999999999 -7.788L75.12449999999998 -8.6625L78.17699999999999 -11.517000000000001H80.33849999999998V-1.2045000000000001H83.37449999999998V0.0ZM89.1 0.14850000000000002Q88.42349999999999 0.14850000000000002 88.15124999999999 -0.132Q87.87899999999999 -0.41250000000000003 87.87899999999999 -0.8415V-1.1385Q87.87899999999999 -1.5675000000000001 88.15124999999999 -1.8480000000000003Q88.42349999999999 -2.1285000000000003 89.1 -2.1285000000000003Q89.7765 -2.1285000000000003 90.04875 -1.8480000000000003Q90.321 -1.5675000000000001 90.321 -1.1385V-0.8415Q90.321 -0.41250000000000003 90.04875 -0.132Q89.7765 0.14850000000000002 89.1 0.14850000000000002ZM102.31649999999999 -10.3125H97.1685L96.8385 -5.907H96.954Q97.383 -6.484500000000001 97.911 -6.822750000000001Q98.439 -7.1610000000000005 99.363 -7.1610000000000005Q100.122 -7.1610000000000005 100.75725 -6.92175Q101.3925 -6.6825 101.8545 -6.2205Q102.31649999999999 -5.758500000000001 102.5805 -5.10675Q102.8445 -4.455 102.8445 -3.6135Q102.8445 -2.7720000000000002 102.5805 -2.0707500000000003Q102.31649999999999 -1.3695000000000002 101.80499999999999 -0.8662500000000001Q101.2935 -0.363 100.5675 -0.08249999999999999Q99.8415 0.198 98.9175 0.198Q98.19149999999999 0.198 97.62225 0.033Q97.053 -0.132 96.61574999999999 -0.41250000000000003Q96.1785 -0.6930000000000001 95.8485 -1.0395Q95.5185 -1.3860000000000001 95.2545 -1.7655L96.294 -2.5575Q96.52499999999999 -2.2110000000000003 96.76425 -1.9305000000000003Q97.0035 -1.6500000000000001 97.31700000000001 -1.44375Q97.6305 -1.2375 98.0265 -1.1219999999999999Q98.4225 -1.0065 98.95049999999999 -1.0065Q100.1385 -1.0065 100.77374999999999 -1.6500000000000001Q101.40899999999999 -2.2935000000000003 101.40899999999999 -3.4320000000000004V-3.564Q101.40899999999999 -4.702500000000001 100.7655 -5.346Q100.122 -5.9895000000000005 98.9175 -5.9895000000000005Q98.0925 -5.9895000000000005 97.63875 -5.7090000000000005Q97.185 -5.4285000000000005 96.8055 -5.016L95.634 -5.181L96.0465 -11.517000000000001H102.31649999999999ZM108.9 -6.072Q108.306 -6.072 107.7945 -6.2865Q107.283 -6.501 106.89525 -6.8805000000000005Q106.50750000000001 -7.260000000000001 106.293 -7.77975Q106.0785 -8.2995 106.0785 -8.893500000000001Q106.0785 -9.4875 106.293 -10.00725Q106.50750000000001 -10.527000000000001 106.89525 -10.906500000000001Q107.283 -11.286000000000001 107.7945 -11.5005Q108.306 -11.715 108.9 -11.715Q109.494 -11.715 110.0055 -11.5005Q110.517 -11.286000000000001 110.90475 -10.906500000000001Q111.2925 -10.527000000000001 111.507 -10.00725Q111.7215 -9.4875 111.7215 -8.893500000000001Q111.7215 -8.2995 111.507 -7.77975Q111.2925 -7.260000000000001 110.90475 -6.8805000000000005Q110.517 -6.501 110.0055 -6.2865Q109.494 -6.072 108.9 -6.072ZM108.9 -7.128Q109.659 -7.128 110.11275 -7.6395Q110.5665 -8.151 110.5665 -8.893500000000001Q110.5665 -9.636000000000001 110.11275 -10.1475Q109.659 -10.659 108.9 -10.659Q108.141 -10.659 107.68725 -10.1475Q107.2335 -9.636000000000001 107.2335 -8.893500000000001Q107.2335 -8.151 107.68725 -7.6395Q108.141 -7.128 108.9 -7.128ZM120.3675 -5.1315Q120.3675 -3.927 120.09525000000001 -2.81325Q119.82300000000001 -1.6995 119.35275000000001 -0.7424999999999999Q118.88250000000001 0.21450000000000002 118.25550000000001 0.99Q117.6285 1.7655 116.9355 2.277H115.599Q116.30850000000001 1.7325000000000002 116.95200000000001 1.01475Q117.59550000000002 0.29700000000000004 118.08225000000002 -0.5527500000000001Q118.569 -1.4025 118.8495 -2.38425Q119.13000000000001 -3.366 119.13000000000001 -4.422000000000001V-5.841Q119.13000000000001 -6.897 118.8495 -7.87875Q118.569 -8.8605 118.08225000000002 -9.71025Q117.59550000000002 -10.56 116.95200000000001 -11.277750000000001Q116.30850000000001 -11.9955 115.599 -12.540000000000001H116.9355Q117.6285 -12.012 118.25550000000001 -11.24475Q118.88250000000001 -10.477500000000001 119.35275000000001 -9.520500000000002Q119.82300000000001 -8.563500000000001 120.09525000000001 -7.449750000000001Q120.3675 -6.336 120.3675 -5.1315Z" fill="#0F2A4A" /><path transform="translate(900.00 252.00)" d="M-146.75 0.0H-169.54999999999998V-104.7H-120.05Q-110.3 -104.7 -103.175 -100.5Q-96.05 -96.3 -92.15 -88.725Q-88.25 -81.14999999999999 -88.25 -71.25Q-88.25 -61.349999999999994 -92.15 -53.849999999999994Q-96.05 -46.35 -103.175 -42.075Q-110.3 -37.8 -120.05 -37.8H-146.75ZM-146.75 -84.89999999999999V-57.599999999999994H-122.75Q-119.3 -57.599999999999994 -116.9 -58.8Q-114.5 -60.0 -113.15 -62.324999999999996Q-111.8 -64.64999999999999 -111.8 -67.95V-74.55Q-111.8 -78.0 -113.15 -80.25Q-114.5 -82.5 -116.9 -83.69999999999999Q-119.3 -84.89999999999999 -122.75 -84.89999999999999ZM-14.400000000000006 1.7999999999999998Q-28.650000000000006 1.7999999999999998 -39.22500000000001 -4.35Q-49.800000000000004 -10.5 -55.5 -22.575Q-61.2 -34.65 -61.2 -52.35Q-61.2 -70.2 -55.5 -82.2Q-49.800000000000004 -94.2 -39.22500000000001 -100.35Q-28.650000000000006 -106.5 -14.400000000000006 -106.5Q0.0 -106.5 10.5 -100.35Q21.0 -94.2 26.699999999999996 -82.2Q32.39999999999999 -70.2 32.39999999999999 -52.35Q32.39999999999999 -34.65 26.699999999999996 -22.575Q21.0 -10.5 10.5 -4.35Q0.0 1.7999999999999998 -14.400000000000006 1.7999999999999998ZM-14.400000000000006 -18.45Q-7.050000000000004 -18.45 -2.025000000000002 -21.525Q3.0 -24.599999999999998 5.625 -30.449999999999996Q8.25 -36.3 8.25 -44.55V-60.15Q8.25 -68.55 5.625 -74.32499999999999Q3.0 -80.1 -2.025000000000002 -83.175Q-7.050000000000004 -86.25 -14.400000000000006 -86.25Q-21.6 -86.25 -26.700000000000003 -83.175Q-31.800000000000004 -80.1 -34.425000000000004 -74.32499999999999Q-37.050000000000004 -68.55 -37.050000000000004 -60.15V-44.55Q-37.050000000000004 -36.3 -34.425000000000004 -30.449999999999996Q-31.800000000000004 -24.599999999999998 -26.700000000000003 -21.525Q-21.6 -18.45 -14.400000000000006 -18.45ZM0.0 -42.9H-28.800000000000004V-63.0H0.0ZM105.94999999999999 6.6V-4.8H104.44999999999999Q90.94999999999999 -4.8 80.89999999999999 -10.725Q70.85 -16.65 65.375 -27.45Q59.89999999999999 -38.25 59.89999999999999 -52.949999999999996Q59.89999999999999 -67.8 65.375 -78.675Q70.85 -89.55 80.89999999999999 -95.475Q90.94999999999999 -101.39999999999999 104.44999999999999 -101.39999999999999H105.94999999999999V-111.0H129.04999999999998V-101.39999999999999H130.54999999999998Q144.2 -101.39999999999999 154.17499999999998 -95.475Q164.14999999999998 -89.55 169.62499999999997 -78.75Q175.09999999999997 -67.95 175.09999999999997 -53.25Q175.09999999999997 -38.4 169.62499999999997 -27.525Q164.14999999999998 -16.65 154.17499999999998 -10.725Q144.2 -4.8 130.54999999999998 -4.8H129.04999999999998V6.6ZM106.39999999999999 -23.55V-82.64999999999999H104.89999999999999Q99.35 -82.64999999999999 94.39999999999999 -79.64999999999999Q89.44999999999999 -76.64999999999999 86.37499999999999 -71.1Q83.29999999999998 -65.55 83.29999999999998 -57.75V-48.449999999999996Q83.29999999999998 -40.65 86.37499999999999 -35.099999999999994Q89.44999999999999 -29.549999999999997 94.39999999999999 -26.549999999999997Q99.35 -23.55 104.89999999999999 -23.55ZM128.6 -23.55H130.1Q135.64999999999998 -23.55 140.59999999999997 -26.549999999999997Q145.54999999999998 -29.549999999999997 148.625 -35.099999999999994Q151.7 -40.65 151.7 -48.449999999999996V-57.75Q151.7 -65.55 148.625 -71.1Q145.54999999999998 -76.64999999999999 140.59999999999997 -79.64999999999999Q135.64999999999998 -82.64999999999999 130.1 -82.64999999999999H128.6Z" fill="#0F2A4A" /><line x1="105.23082248244441" y1="487.0352761675485" x2="556.7250582906556" y2="487.0352761675485" stroke="#0F2A4A" stroke-width="2.6"/><g stroke="#0F2A4A" stroke-width="1.6"><line x1="119" y1="487.0352761675485" x2="109" y2="497.0352761675485"/><line x1="133" y1="487.0352761675485" x2="123" y2="497.0352761675485"/><line x1="147" y1="487.0352761675485" x2="137" y2="497.0352761675485"/><line x1="161" y1="487.0352761675485" x2="151" y2="497.0352761675485"/><line x1="175" y1="487.0352761675485" x2="165" y2="497.0352761675485"/><line x1="189" y1="487.0352761675485" x2="179" y2="497.0352761675485"/><line x1="203" y1="487.0352761675485" x2="193" y2="497.0352761675485"/><line x1="217" y1="487.0352761675485" x2="207" y2="497.0352761675485"/><line x1="231" y1="487.0352761675485" x2="221" y2="497.0352761675485"/><line x1="245" y1="487.0352761675485" x2="235" y2="497.0352761675485"/><line x1="259" y1="487.0352761675485" x2="249" y2="497.0352761675485"/><line x1="273" y1="487.0352761675485" x2="263" y2="497.0352761675485"/><line x1="287" y1="487.0352761675485" x2="277" y2="497.0352761675485"/><line x1="301" y1="487.0352761675485" x2="291" y2="497.0352761675485"/><line x1="315" y1="487.0352761675485" x2="305" y2="497.0352761675485"/><line x1="329" y1="487.0352761675485" x2="319" y2="497.0352761675485"/><line x1="343" y1="487.0352761675485" x2="333" y2="497.0352761675485"/><line x1="357" y1="487.0352761675485" x2="347" y2="497.0352761675485"/><line x1="371" y1="487.0352761675485" x2="361" y2="497.0352761675485"/><line x1="385" y1="487.0352761675485" x2="375" y2="497.0352761675485"/><line x1="399" y1="487.0352761675485" x2="389" y2="497.0352761675485"/><line x1="413" y1="487.0352761675485" x2="403" y2="497.0352761675485"/><line x1="427" y1="487.0352761675485" x2="417" y2="497.0352761675485"/><line x1="441" y1="487.0352761675485" x2="431" y2="497.0352761675485"/><line x1="455" y1="487.0352761675485" x2="445" y2="497.0352761675485"/><line x1="469" y1="487.0352761675485" x2="459" y2="497.0352761675485"/><line x1="483" y1="487.0352761675485" x2="473" y2="497.0352761675485"/><line x1="497" y1="487.0352761675485" x2="487" y2="497.0352761675485"/><line x1="511" y1="487.0352761675485" x2="501" y2="497.0352761675485"/><line x1="525" y1="487.0352761675485" x2="515" y2="497.0352761675485"/><line x1="539" y1="487.0352761675485" x2="529" y2="497.0352761675485"/><line x1="553" y1="487.0352761675485" x2="543" y2="497.0352761675485"/></g><g transform="translate(300.2 279.0) scale(1.3)">
<g transform="translate(-94 140) rotate(-16)">
  <clipPath id="btail"><ellipse cx="0" cy="0" rx="52" ry="22"/></clipPath>
  <ellipse cx="0" cy="0" rx="52" ry="22" fill="#0F2A4A" stroke="#0F2A4A" stroke-width="3.4"/>
  <g clip-path="url(#btail)" stroke="#F4F0E8" stroke-width="1.7"><line x1="-96" y1="-30" x2="-56" y2="30"/><line x1="-85" y1="-30" x2="-45" y2="30"/><line x1="-74" y1="-30" x2="-34" y2="30"/><line x1="-63" y1="-30" x2="-23" y2="30"/><line x1="-52" y1="-30" x2="-12" y2="30"/><line x1="-41" y1="-30" x2="-1" y2="30"/><line x1="-30" y1="-30" x2="10" y2="30"/><line x1="-19" y1="-30" x2="21" y2="30"/><line x1="-8" y1="-30" x2="32" y2="30"/><line x1="3" y1="-30" x2="43" y2="30"/><line x1="14" y1="-30" x2="54" y2="30"/><line x1="25" y1="-30" x2="65" y2="30"/><line x1="36" y1="-30" x2="76" y2="30"/><line x1="47" y1="-30" x2="87" y2="30"/><line x1="58" y1="-30" x2="98" y2="30"/><line x1="-50" y1="-30" x2="-90" y2="30"/><line x1="-39" y1="-30" x2="-79" y2="30"/><line x1="-28" y1="-30" x2="-68" y2="30"/><line x1="-17" y1="-30" x2="-57" y2="30"/><line x1="-6" y1="-30" x2="-46" y2="30"/><line x1="5" y1="-30" x2="-35" y2="30"/><line x1="16" y1="-30" x2="-24" y2="30"/><line x1="27" y1="-30" x2="-13" y2="30"/><line x1="38" y1="-30" x2="-2" y2="30"/><line x1="49" y1="-30" x2="9" y2="30"/><line x1="60" y1="-30" x2="20" y2="30"/><line x1="71" y1="-30" x2="31" y2="30"/><line x1="82" y1="-30" x2="42" y2="30"/><line x1="93" y1="-30" x2="53" y2="30"/></g>
</g>
<path d="M -62 84 C -72 98 -72 112 -62 122" fill="none" stroke="#0F2A4A" stroke-width="14" stroke-linecap="round"/>
<path d="M -62 84 C -72 98 -72 112 -62 122" fill="none" stroke="#F4F0E8" stroke-width="8" stroke-linecap="round"/>
<path d="M -12 36 C 28 38 46 72 44 104 C 42 136 18 152 -16 152 C -52 152 -78 132 -76 100 C -74 68 -54 36 -12 36 Z" fill="#F4F0E8" stroke="#0F2A4A" stroke-width="3.4" stroke-linejoin="round"/>
<path d="M -2 58 C 20 64 30 88 26 112 C 23 132 6 142 -10 140 C -32 138 -44 118 -38 94 C -33 72 -20 56 -2 58 Z" fill="#F4F0E8" stroke="#0F2A4A" stroke-width="2.2"/>
<ellipse cx="-44" cy="152" rx="22" ry="8.5" fill="#F4F0E8" stroke="#0F2A4A" stroke-width="3.4"/>
<ellipse cx="0" cy="154" rx="24" ry="8.5" fill="#F4F0E8" stroke="#0F2A4A" stroke-width="3.4"/>
<path d="M -36 146 L -34 159 M -26 146 L -23 159 M 8 148 L 11 161 M 18 148 L 22 161" stroke="#0F2A4A" stroke-width="1.8" fill="none"/>
<g transform="rotate(18 -4 30)">
  <circle cx="-30" cy="-34" r="10" fill="#F4F0E8" stroke="#0F2A4A" stroke-width="3.4"/>
  <circle cx="-30" cy="-34" r="4.5" fill="#F4F0E8"/>
  <path d="M -50 -6 C -50 -36 -26 -50 2 -50 C 34 -50 56 -30 58 0 C 60 28 40 48 6 48 C -28 48 -50 26 -50 -6 Z" fill="#F4F0E8" stroke="#0F2A4A" stroke-width="3.4" stroke-linejoin="round"/>
  <path d="M 16 4 C 32 0 52 4 60 14 C 64 24 54 36 40 36 C 24 36 12 28 12 18 C 12 12 14 6 16 4 Z" fill="#F4F0E8" stroke="#0F2A4A" stroke-width="2.2"/>
  <ellipse cx="58" cy="11" rx="7" ry="5.5" fill="#0F2A4A"/>
  <rect x="38" y="31" width="8" height="15" rx="1.5" fill="#F4F0E8" stroke="#0F2A4A" stroke-width="2"/>
  <rect x="47" y="31" width="8" height="15" rx="1.5" fill="#F4F0E8" stroke="#0F2A4A" stroke-width="2"/>
  <path d="M -14 -18 C -30 -22 -44 -20 -52 -12" fill="none" stroke="#0F2A4A" stroke-width="8" stroke-linecap="round"/>
  <path d="M -10 -30 C 8 -36 36 -34 48 -28 C 55 -24 55 -6 48 -2 C 36 4 8 4 -10 -1 C -17 -7 -17 -24 -10 -30 Z" fill="#F4F0E8" stroke="#0F2A4A" stroke-width="5" stroke-linejoin="round"/>
  <path d="M 1 -16 Q 7 -11 13 -16" fill="none" stroke="#0F2A4A" stroke-width="3" stroke-linecap="round"/>
  <ellipse cx="34" cy="-15" rx="4.5" ry="5.5" fill="#0F2A4A"/>
  <path d="M 40 -27 L 46 -20 M 44 -27 L 48 -23" stroke="#0F2A4A" stroke-width="1.8" stroke-linecap="round"/>
  <path d="M -50 -40 C -52 -74 -28 -94 2 -94 C 32 -94 54 -76 54 -42 Z" fill="#F4F0E8" stroke="#0F2A4A" stroke-width="3.4" stroke-linejoin="round"/>
  <path d="M -40 -42 C -41 -66 -22 -82 2 -82 C 26 -82 44 -68 44 -44" fill="none" stroke="#0F2A4A" stroke-width="2.4"/>
  <path d="M6 -70 L8.5 -63.5 L15.5 -63.1 L10.1 -58.7 L11.9 -51.9 L6 -55.7 L0.1 -51.9 L1.9 -58.7 L-3.5 -63.1 L3.5 -63.5 Z" fill="#0F2A4A"/>
  <path d="M -56 -46 L 56 -48 C 68 -48 79 -44 84 -35 C 71 -33 58 -35 48 -38 L -56 -38 C -60 -38 -60 -46 -56 -46 Z" fill="#F4F0E8" stroke="#0F2A4A" stroke-width="3.4" stroke-linejoin="round"/>
</g></g><path d="M426.2 388.7 L435.2 388.7 L443.3 475 L438.1 475 Z" fill="#0F2A4A"/><line x1="430.7250582906557" y1="394.5856274089032" x2="440.7250582906557" y2="457.0352761675485" stroke="#F4F0E8" stroke-width="1.6"/><path d="M436.1 473 L445.3 473 L440.7 487 Z" fill="#0F2A4A"/><line x1="426.7250582906557" y1="384.22562740890316" x2="426.7250582906557" y2="453.0352761675485" stroke="#0F2A4A" stroke-width="1.4"/><path d="M 422.7250582906557 453.0352761675485 L 430.7250582906557 453.0352761675485 L 433.7250582906557 460.0352761675485 L 426.7250582906557 472.0352761675485 L 419.7250582906557 460.0352761675485 Z" fill="#0F2A4A" stroke="#0F2A4A" stroke-width="1.6" stroke-linejoin="round"/><path d="M398.5 388.7 L410.5 388.7 L347.9 475 L341.5 475 Z" fill="#0F2A4A"/><line x1="404.5250582906557" y1="394.5856274089032" x2="344.7250582906557" y2="457.0352761675485" stroke="#F4F0E8" stroke-width="1.6"/><path d="M339.5 473 L349.9 473 L344.7 487 Z" fill="#0F2A4A"/><path d="M442.9 388.7 L454.9 388.7 L515.9 475 L509.5 475 Z" fill="#0F2A4A"/><line x1="448.92505829065567" y1="394.5856274089032" x2="512.7250582906556" y2="457.0352761675485" stroke="#F4F0E8" stroke-width="1.6"/><path d="M507.5 473 L517.9 473 L512.7 487 Z" fill="#0F2A4A"/><rect x="389.7250582906557" y="384.22562740890316" width="74.0" height="6.66" rx="2" fill="#0F2A4A"/><path d="M404.5 367.9 L448.9 367.9 L454.8 377.6 L398.6 377.6 Z" fill="#0F2A4A"/><rect x="397.12505829065566" y="377.5656274089032" width="8.879999999999999" height="6.66" rx="2" fill="#0F2A4A"/><rect x="422.2850582906557" y="377.5656274089032" width="8.879999999999999" height="6.66" rx="2" fill="#0F2A4A"/><rect x="447.4450582906557" y="377.5656274089032" width="8.879999999999999" height="6.66" rx="2" fill="#0F2A4A"/><ellipse cx="426.7250582906557" cy="364.98562740890316" rx="29.6" ry="5.18" fill="#0F2A4A"/><rect x="400.0850582906557" y="348.7056274089032" width="53.28" height="13.32" rx="2.2199999999999998" fill="#0F2A4A"/><rect x="411.92505829065567" y="352.4056274089032" width="29.6" height="5.92" rx="2.96" fill="#F4F0E8"/><ellipse cx="428.9450582906557" cy="355.36562740890315" rx="4.4399999999999995" ry="1.924" fill="#0F2A4A"/><path d="M410.4 348.7 L443 348.7 L437.8 313.2 L415.6 313.2 Z" fill="#0F2A4A"/><circle cx="407.4850582906557" cy="338.34562740890317" r="4.4399999999999995" fill="#0F2A4A"/><g transform="translate(426.7 316.1) rotate(36.00) scale(0.74)">
  <rect x="-60" y="-8.5" width="24" height="17" rx="3" fill="#0F2A4A"/>
  <rect x="-68" y="-11" width="11" height="22" rx="4" fill="#0F2A4A"/>
  <rect x="-40" y="-13" width="86" height="26" rx="4" fill="#0F2A4A"/>
  <rect x="44" y="-16" width="20" height="32" rx="3" fill="#0F2A4A"/>
  <rect x="-24" y="-15" width="9" height="30" rx="2" fill="#0F2A4A"/>
  <line x1="-34" y1="-7" x2="40" y2="-7" stroke="#F4F0E8" stroke-width="2"/>
  <rect x="-6" y="-21" width="30" height="6" rx="2" fill="#0F2A4A"/>
</g><circle cx="426.7" cy="316.1" r="12.58" fill="#0F2A4A" stroke="#F4F0E8" stroke-width="2"/><line x1="435.6" y1="316.1" x2="438.2" y2="316.1" stroke="#F4F0E8" stroke-width="1.4"/><line x1="434.4" y1="320.6" x2="436.7" y2="321.9" stroke="#F4F0E8" stroke-width="1.4"/><line x1="431.2" y1="323.8" x2="432.5" y2="326.1" stroke="#F4F0E8" stroke-width="1.4"/><line x1="426.7" y1="325" x2="426.7" y2="327.6" stroke="#F4F0E8" stroke-width="1.4"/><line x1="422.3" y1="323.8" x2="421" y2="326.1" stroke="#F4F0E8" stroke-width="1.4"/><line x1="419" y1="320.6" x2="416.8" y2="321.9" stroke="#F4F0E8" stroke-width="1.4"/><line x1="417.8" y1="316.1" x2="415.3" y2="316.1" stroke="#F4F0E8" stroke-width="1.4"/><line x1="419" y1="311.7" x2="416.8" y2="310.4" stroke="#F4F0E8" stroke-width="1.4"/><line x1="422.3" y1="308.5" x2="421" y2="306.2" stroke="#F4F0E8" stroke-width="1.4"/><line x1="426.7" y1="307.3" x2="426.7" y2="304.7" stroke="#F4F0E8" stroke-width="1.4"/><line x1="431.2" y1="308.5" x2="432.5" y2="306.2" stroke="#F4F0E8" stroke-width="1.4"/><line x1="434.4" y1="311.7" x2="436.7" y2="310.4" stroke="#F4F0E8" stroke-width="1.4"/><circle cx="426.7" cy="316.1" r="3.7" fill="#0F2A4A" stroke="#F4F0E8" stroke-width="1.5"/><g transform="translate(300.2 279.0) scale(1.3)"><path d="M 12 66 Q 47.3 80 82.5 45.6" fill="none" stroke="#0F2A4A" stroke-width="14" stroke-linecap="round"/><path d="M 12 66 Q 47.3 80 82.5 45.6" fill="none" stroke="#F4F0E8" stroke-width="8" stroke-linecap="round"/><circle cx="82.5" cy="45.6" r="8.5" fill="#F4F0E8" stroke="#0F2A4A" stroke-width="3.2"/></g></svg>